<svg width="25" height="25" viewBox="0 0 25 25" fill="none" xmlns="http://www.w3.org/2000/svg">
<path d="M20.3134 4.81183H6.31335C5.21035 4.81183 4.31335 5.70883 4.31335 6.81183V11.8118H6.31335V8.81183L12.7134 13.6118C12.8865 13.7415 13.097 13.8116 13.3134 13.8116C13.5297 13.8116 13.7402 13.7415 13.9134 13.6118L20.3134 8.81183V17.8118H12.3134V19.8118H20.3134C21.4164 19.8118 22.3134 18.9148 22.3134 17.8118V6.81183C22.3134 5.70883 21.4164 4.81183 20.3134 4.81183ZM13.3134 11.5618L6.97935 6.81183H19.6474L13.3134 11.5618Z" fill="#000"/>
<path d="M2.31335 12.8118H9.31335V14.8118H2.31335V12.8118ZM4.31335 15.8118H10.3134V17.8118H4.31335V15.8118ZM7.31335 18.8118H11.3134V20.8118H7.31335V18.8118Z" fill="#000"/>
</svg>
